<mxfile host="app.diagrams.net" modified="2024-01-28T06:56:13.675Z" agent="Mozilla/5.0 (Windows NT 10.0; Win64; x64) AppleWebKit/537.36 (KHTML, like Gecko) Chrome/121.0.0.0 Safari/537.36 Edg/121.0.0.0" etag="921YwdWemC4ZXE8WgdtL" version="22.1.21" type="github">
  <diagram name="第 1 页" id="hel060i3aNS7jzC0T3wl">
    <mxGraphModel dx="1676" dy="2119" grid="1" gridSize="10" guides="1" tooltips="1" connect="1" arrows="1" fold="1" page="1" pageScale="1" pageWidth="827" pageHeight="1169" math="0" shadow="0">
      <root>
        <mxCell id="0" />
        <mxCell id="1" parent="0" />
        <mxCell id="059qrzUKcTWF5gOo4CG2-1" value="根零件" style="shape=cube;whiteSpace=wrap;html=1;boundedLbl=1;backgroundOutline=1;darkOpacity=0.05;darkOpacity2=0.1;sketch=1;curveFitting=1;jiggle=2;shadow=1;" vertex="1" parent="1">
          <mxGeometry x="161" y="110" width="120" height="80" as="geometry" />
        </mxCell>
        <mxCell id="059qrzUKcTWF5gOo4CG2-9" style="edgeStyle=orthogonalEdgeStyle;rounded=0;orthogonalLoop=1;jettySize=auto;html=1;shape=flexArrow;fillColor=#60a917;strokeColor=#2D7600;sketch=1;curveFitting=1;jiggle=2;shadow=1;" edge="1" parent="1" source="059qrzUKcTWF5gOo4CG2-2" target="059qrzUKcTWF5gOo4CG2-1">
          <mxGeometry relative="1" as="geometry" />
        </mxCell>
        <mxCell id="059qrzUKcTWF5gOo4CG2-2" value="子零件" style="shape=cube;whiteSpace=wrap;html=1;boundedLbl=1;backgroundOutline=1;darkOpacity=0.05;darkOpacity2=0.1;sketch=1;curveFitting=1;jiggle=2;shadow=1;" vertex="1" parent="1">
          <mxGeometry x="480" y="110" width="120" height="80" as="geometry" />
        </mxCell>
        <mxCell id="059qrzUKcTWF5gOo4CG2-8" style="edgeStyle=orthogonalEdgeStyle;rounded=0;orthogonalLoop=1;jettySize=auto;html=1;fillColor=#008a00;strokeColor=#005700;shape=flexArrow;sketch=1;curveFitting=1;jiggle=2;shadow=1;" edge="1" parent="1" source="059qrzUKcTWF5gOo4CG2-3" target="059qrzUKcTWF5gOo4CG2-2">
          <mxGeometry relative="1" as="geometry" />
        </mxCell>
        <mxCell id="059qrzUKcTWF5gOo4CG2-3" value="子子零件" style="shape=cube;whiteSpace=wrap;html=1;boundedLbl=1;backgroundOutline=1;darkOpacity=0.05;darkOpacity2=0.1;sketch=1;curveFitting=1;jiggle=2;shadow=1;" vertex="1" parent="1">
          <mxGeometry x="790" y="110" width="120" height="80" as="geometry" />
        </mxCell>
        <mxCell id="059qrzUKcTWF5gOo4CG2-6" style="edgeStyle=orthogonalEdgeStyle;rounded=0;orthogonalLoop=1;jettySize=auto;html=1;fillColor=#008a00;strokeColor=#005700;shape=flexArrow;sketch=1;curveFitting=1;jiggle=2;shadow=1;" edge="1" parent="1" source="059qrzUKcTWF5gOo4CG2-4" target="059qrzUKcTWF5gOo4CG2-3">
          <mxGeometry relative="1" as="geometry" />
        </mxCell>
        <mxCell id="059qrzUKcTWF5gOo4CG2-4" value="子子子零件" style="shape=cube;whiteSpace=wrap;html=1;boundedLbl=1;backgroundOutline=1;darkOpacity=0.05;darkOpacity2=0.1;sketch=1;curveFitting=1;jiggle=2;shadow=1;" vertex="1" parent="1">
          <mxGeometry x="1100" y="110" width="120" height="80" as="geometry" />
        </mxCell>
        <mxCell id="059qrzUKcTWF5gOo4CG2-12" style="edgeStyle=orthogonalEdgeStyle;rounded=0;orthogonalLoop=1;jettySize=auto;html=1;sketch=1;curveFitting=1;jiggle=2;shadow=1;strokeWidth=6;" edge="1" parent="1" source="059qrzUKcTWF5gOo4CG2-11" target="059qrzUKcTWF5gOo4CG2-4">
          <mxGeometry relative="1" as="geometry" />
        </mxCell>
        <mxCell id="059qrzUKcTWF5gOo4CG2-31" style="edgeStyle=orthogonalEdgeStyle;rounded=0;orthogonalLoop=1;jettySize=auto;html=1;sketch=1;curveFitting=1;jiggle=2;shadow=1;" edge="1" parent="1" source="059qrzUKcTWF5gOo4CG2-11" target="059qrzUKcTWF5gOo4CG2-29">
          <mxGeometry relative="1" as="geometry" />
        </mxCell>
        <mxCell id="059qrzUKcTWF5gOo4CG2-11" value="该零件的本级别数量是2，有4个计划编号中有它，其中3个计划编号的等离子和冷作时间完全一致" style="rounded=0;whiteSpace=wrap;html=1;sketch=1;curveFitting=1;jiggle=2;shadow=1;" vertex="1" parent="1">
          <mxGeometry x="1095" y="350" width="130" height="90" as="geometry" />
        </mxCell>
        <mxCell id="059qrzUKcTWF5gOo4CG2-17" style="edgeStyle=orthogonalEdgeStyle;rounded=0;orthogonalLoop=1;jettySize=auto;html=1;entryX=0.492;entryY=0.987;entryDx=0;entryDy=0;entryPerimeter=0;sketch=1;curveFitting=1;jiggle=2;shadow=1;strokeWidth=6;" edge="1" parent="1" source="059qrzUKcTWF5gOo4CG2-16" target="059qrzUKcTWF5gOo4CG2-3">
          <mxGeometry relative="1" as="geometry">
            <mxPoint x="855" y="200" as="targetPoint" />
          </mxGeometry>
        </mxCell>
        <mxCell id="059qrzUKcTWF5gOo4CG2-35" style="edgeStyle=orthogonalEdgeStyle;rounded=0;orthogonalLoop=1;jettySize=auto;html=1;entryX=0.5;entryY=0;entryDx=0;entryDy=0;sketch=1;curveFitting=1;jiggle=2;shadow=1;" edge="1" parent="1" source="059qrzUKcTWF5gOo4CG2-16" target="059qrzUKcTWF5gOo4CG2-34">
          <mxGeometry relative="1" as="geometry" />
        </mxCell>
        <mxCell id="059qrzUKcTWF5gOo4CG2-16" value="该零件的本级别数量是2" style="rounded=0;whiteSpace=wrap;html=1;sketch=1;curveFitting=1;jiggle=2;shadow=1;" vertex="1" parent="1">
          <mxGeometry x="785" y="350" width="130" height="90" as="geometry" />
        </mxCell>
        <mxCell id="059qrzUKcTWF5gOo4CG2-26" style="edgeStyle=orthogonalEdgeStyle;rounded=0;orthogonalLoop=1;jettySize=auto;html=1;sketch=1;curveFitting=1;jiggle=2;shadow=1;strokeWidth=5;" edge="1" parent="1" source="059qrzUKcTWF5gOo4CG2-18" target="059qrzUKcTWF5gOo4CG2-2">
          <mxGeometry relative="1" as="geometry" />
        </mxCell>
        <mxCell id="059qrzUKcTWF5gOo4CG2-39" style="edgeStyle=orthogonalEdgeStyle;rounded=0;orthogonalLoop=1;jettySize=auto;html=1;sketch=1;curveFitting=1;jiggle=2;shadow=1;" edge="1" parent="1" source="059qrzUKcTWF5gOo4CG2-18" target="059qrzUKcTWF5gOo4CG2-36">
          <mxGeometry relative="1" as="geometry" />
        </mxCell>
        <mxCell id="059qrzUKcTWF5gOo4CG2-18" value="该零件的本级别数量是7，但是有3个configuration" style="rounded=0;whiteSpace=wrap;html=1;sketch=1;curveFitting=1;jiggle=2;shadow=1;" vertex="1" parent="1">
          <mxGeometry x="475" y="350" width="130" height="90" as="geometry" />
        </mxCell>
        <mxCell id="059qrzUKcTWF5gOo4CG2-19" value="子零件" style="shape=cube;whiteSpace=wrap;html=1;boundedLbl=1;backgroundOutline=1;darkOpacity=0.05;darkOpacity2=0.1;sketch=1;curveFitting=1;jiggle=2;shadow=1;" vertex="1" parent="1">
          <mxGeometry x="480" y="-10" width="120" height="80" as="geometry" />
        </mxCell>
        <mxCell id="059qrzUKcTWF5gOo4CG2-20" value="子零件" style="shape=cube;whiteSpace=wrap;html=1;boundedLbl=1;backgroundOutline=1;darkOpacity=0.05;darkOpacity2=0.1;sketch=1;curveFitting=1;jiggle=2;shadow=1;" vertex="1" parent="1">
          <mxGeometry x="480" y="-130" width="120" height="80" as="geometry" />
        </mxCell>
        <mxCell id="059qrzUKcTWF5gOo4CG2-24" value="" style="shape=curlyBracket;whiteSpace=wrap;html=1;rounded=1;flipH=1;labelPosition=right;verticalLabelPosition=middle;align=left;verticalAlign=middle;sketch=1;curveFitting=1;jiggle=2;shadow=1;" vertex="1" parent="1">
          <mxGeometry x="630" y="-80" width="20" height="230" as="geometry" />
        </mxCell>
        <mxCell id="059qrzUKcTWF5gOo4CG2-25" value="同一个零件有4个configuration，当作4个零件" style="text;html=1;strokeColor=none;fillColor=none;align=center;verticalAlign=middle;whiteSpace=wrap;rounded=0;sketch=1;curveFitting=1;jiggle=2;shadow=1;" vertex="1" parent="1">
          <mxGeometry x="670" y="20" width="100" height="30" as="geometry" />
        </mxCell>
        <mxCell id="059qrzUKcTWF5gOo4CG2-28" value="&lt;div style=&quot;text-align: justify; font-size: 14px;&quot;&gt;&lt;font style=&quot;font-size: 14px;&quot;&gt;&lt;b&gt;&amp;nbsp; &amp;nbsp; &amp;nbsp; &amp;nbsp; &amp;nbsp; &amp;nbsp; &amp;nbsp; &amp;nbsp; // 统计总数的辅助变量&lt;/b&gt;&lt;/font&gt;&lt;/div&gt;&lt;div style=&quot;text-align: justify; font-size: 14px;&quot;&gt;&lt;font style=&quot;font-size: 14px;&quot;&gt;&lt;b&gt;&amp;nbsp; &amp;nbsp; &amp;nbsp; &amp;nbsp; &amp;nbsp; &amp;nbsp; &amp;nbsp; &amp;nbsp; int N1 = 0;&amp;nbsp; //同订单下的同id、配置名、等离子计划、冷作计划的记录数量&lt;/b&gt;&lt;/font&gt;&lt;/div&gt;&lt;div style=&quot;text-align: justify; font-size: 14px;&quot;&gt;&lt;font style=&quot;font-size: 14px;&quot;&gt;&lt;b&gt;&amp;nbsp; &amp;nbsp; &amp;nbsp; &amp;nbsp; &amp;nbsp; &amp;nbsp; &amp;nbsp; &amp;nbsp; int N2 = 1;&amp;nbsp; //同订单下的同id的“本级别数量”累乘&lt;/b&gt;&lt;/font&gt;&lt;/div&gt;&lt;div style=&quot;text-align: justify; font-size: 14px;&quot;&gt;&lt;font style=&quot;font-size: 14px;&quot;&gt;&lt;b&gt;&amp;nbsp; &amp;nbsp; &amp;nbsp; &amp;nbsp; &amp;nbsp; &amp;nbsp; &amp;nbsp; &amp;nbsp; int N3 = 0;&amp;nbsp; //当前零件的本级别数量&lt;/b&gt;&lt;/font&gt;&lt;/div&gt;" style="text;html=1;strokeColor=none;fillColor=none;align=center;verticalAlign=middle;whiteSpace=wrap;rounded=0;sketch=1;curveFitting=1;jiggle=2;shadow=1;" vertex="1" parent="1">
          <mxGeometry x="1241" y="180" width="560" height="170" as="geometry" />
        </mxCell>
        <mxCell id="059qrzUKcTWF5gOo4CG2-29" value="N1 = 3(计算3个计划编号等离子和冷作完全相同的总数量)" style="text;html=1;strokeColor=none;fillColor=none;align=center;verticalAlign=middle;whiteSpace=wrap;rounded=0;fontSize=16;fontStyle=1;fontColor=#FF2121;sketch=1;curveFitting=1;jiggle=2;shadow=1;" vertex="1" parent="1">
          <mxGeometry x="870" y="520" width="580" height="30" as="geometry" />
        </mxCell>
        <mxCell id="059qrzUKcTWF5gOo4CG2-33" value="N3 = 2" style="text;html=1;strokeColor=none;fillColor=none;align=center;verticalAlign=middle;whiteSpace=wrap;rounded=0;fontSize=16;fontStyle=1;fontColor=#FF2121;sketch=1;curveFitting=1;jiggle=2;shadow=1;" vertex="1" parent="1">
          <mxGeometry x="1130" y="560" width="60" height="30" as="geometry" />
        </mxCell>
        <mxCell id="059qrzUKcTWF5gOo4CG2-34" value="N2 = 1 * 2" style="text;html=1;strokeColor=none;fillColor=none;align=center;verticalAlign=middle;whiteSpace=wrap;rounded=0;fontSize=16;fontStyle=1;fontColor=#FF2121;sketch=1;curveFitting=1;jiggle=2;shadow=1;" vertex="1" parent="1">
          <mxGeometry x="750" y="520" width="200" height="30" as="geometry" />
        </mxCell>
        <mxCell id="059qrzUKcTWF5gOo4CG2-36" value="N2 = 1 * 2 * （7 + 7 + 7 ）" style="text;html=1;strokeColor=none;fillColor=none;align=center;verticalAlign=middle;whiteSpace=wrap;rounded=0;fontSize=16;fontStyle=1;fontColor=#FF2121;sketch=1;curveFitting=1;jiggle=2;shadow=1;" vertex="1" parent="1">
          <mxGeometry x="390" y="520" width="300" height="30" as="geometry" />
        </mxCell>
        <mxCell id="059qrzUKcTWF5gOo4CG2-37" value="总数量 = N1 * N2 * N3 =&amp;nbsp; 252" style="text;html=1;strokeColor=none;fillColor=none;align=center;verticalAlign=middle;whiteSpace=wrap;rounded=0;fontSize=16;fontStyle=1;fontColor=#0000FF;sketch=1;curveFitting=1;jiggle=2;shadow=1;" vertex="1" parent="1">
          <mxGeometry x="520" y="620" width="670" height="30" as="geometry" />
        </mxCell>
        <mxCell id="059qrzUKcTWF5gOo4CG2-40" value="等离子计划和冷作计划与另外3条记录不同的记录，会另外计算，结果应该为84" style="text;html=1;strokeColor=none;fillColor=none;align=center;verticalAlign=middle;whiteSpace=wrap;rounded=0;fontSize=16;fontStyle=1;fontColor=#0000FF;sketch=1;curveFitting=1;jiggle=2;shadow=1;" vertex="1" parent="1">
          <mxGeometry x="515" y="680" width="670" height="30" as="geometry" />
        </mxCell>
        <mxCell id="059qrzUKcTWF5gOo4CG2-41" value="" style="swimlane;startSize=0;sketch=1;curveFitting=1;jiggle=2;shadow=1;" vertex="1" parent="1">
          <mxGeometry x="130" y="-330" width="1769" height="1150" as="geometry" />
        </mxCell>
        <mxCell id="059qrzUKcTWF5gOo4CG2-42" value="计算此排产计划汇总表中零件的总数量" style="text;html=1;strokeColor=none;fillColor=none;align=center;verticalAlign=middle;whiteSpace=wrap;rounded=0;fontSize=29;fontStyle=1;sketch=1;curveFitting=1;jiggle=2;shadow=1;" vertex="1" parent="059qrzUKcTWF5gOo4CG2-41">
          <mxGeometry x="-9" y="20" width="529" height="20" as="geometry" />
        </mxCell>
        <mxCell id="059qrzUKcTWF5gOo4CG2-43" value="" style="shape=flexArrow;endArrow=classic;html=1;rounded=0;entryX=0;entryY=0;entryDx=120.00000000000001;entryDy=50;entryPerimeter=0;strokeWidth=14;fillColor=#dae8fc;strokeColor=#6c8ebf;" edge="1" parent="059qrzUKcTWF5gOo4CG2-41" target="059qrzUKcTWF5gOo4CG2-4">
          <mxGeometry width="50" height="50" relative="1" as="geometry">
            <mxPoint x="1230" y="490" as="sourcePoint" />
            <mxPoint x="1370" y="450" as="targetPoint" />
          </mxGeometry>
        </mxCell>
        <mxCell id="059qrzUKcTWF5gOo4CG2-15" value="计算子子子零件的总数量" style="text;html=1;strokeColor=none;fillColor=none;align=center;verticalAlign=middle;whiteSpace=wrap;rounded=0;sketch=1;curveFitting=1;jiggle=2;shadow=1;fontColor=#990000;fontSize=20;fontStyle=7;labelBackgroundColor=none;labelBorderColor=none;" vertex="1" parent="059qrzUKcTWF5gOo4CG2-41">
          <mxGeometry x="1260" y="470" width="150" height="30" as="geometry" />
        </mxCell>
      </root>
    </mxGraphModel>
  </diagram>
</mxfile>
